<svg viewBox="0 0 512 512" xmlns="http://www.w3.org/2000/svg"><path d="M411.87 253.25c0 78.97-69.03 142.99-154.15 142.99-10.61 0-20.98-1-31-2.92-31.78 38.15-121.24 53.68-96.99 36.22 17.19-12.37 30.08-43.95 36.18-61.48-37.82-26.05-62.31-67.77-62.31-114.81 0-79 69.03-143.03 154.11-143.03s154.15 64.06 154.15 143.03Z" stroke-miterlimit="10" fill="none" stroke="#000000" stroke-width="7px" class="stroke-808285"></path><path d="M291.43 262.64c-5.65-9.65-17.81-16.47-31.91-16.47s-26.17 6.75-31.91 16.47c-10.1 4.73-16.47 11.62-16.47 19.31 0 14.2 21.65 25.72 48.38 25.72s48.38-11.52 48.38-25.72c0-7.69-6.37-14.59-16.47-19.31Z" stroke-miterlimit="10" fill="none" stroke="#000000" stroke-width="7px" class="stroke-808285"></path><ellipse cx="277.3" cy="210.78" rx="19.05" ry="14.62" transform="rotate(-76.66 277.294 210.781)" stroke-miterlimit="10" fill="none" stroke="#000000" stroke-width="7px" class="stroke-808285"></ellipse><ellipse cx="236.56" cy="210.77" rx="14.62" ry="19.05" transform="rotate(-13.34 236.566 210.78)" stroke-miterlimit="10" fill="none" stroke="#000000" stroke-width="7px" class="stroke-808285"></ellipse><ellipse cx="205.07" cy="242.02" rx="12.84" ry="16.75" transform="rotate(-30 205.069 242.028)" stroke-miterlimit="10" fill="none" stroke="#000000" stroke-width="7px" class="stroke-808285"></ellipse><ellipse cx="310.41" cy="237.68" rx="16.75" ry="12.84" transform="rotate(-60 310.408 237.677)" fill="none" stroke="#000000" stroke-width="7px" stroke-miterlimit="10" class="stroke-808285"></ellipse></svg>